<svg width="304" height="120" viewBox="0 0 304 120" fill="none" xmlns="http://www.w3.org/2000/svg">
<path d="M128 0C152.242 0 173.686 7.98721 186.733 20.2295C193.291 18.5361 200.472 17.5996 208 17.5996C225.17 17.5996 240.534 22.4595 250.807 30.1074C282.549 38.3256 304 54.0068 304 72C304 98.5097 257.438 120 200 120C178.351 120 158.248 116.947 141.6 111.723C126.757 116.911 108.172 120 88 120C39.3989 120 0 102.091 0 80C0 66.9578 13.7327 55.3753 34.9834 48.0732C39.6009 39.7739 49.233 33.098 61.4277 29.6836C72.2255 12.2604 97.9651 0 128 0Z" fill="white" fill-opacity="0.75"/>
</svg>
