<svg width="400" height="160" viewBox="0 0 400 160" fill="none" xmlns="http://www.w3.org/2000/svg">
<g opacity="0.9">
<path d="M120 160C180.751 160 230 137.614 230 110C230 82.3858 180.751 60 120 60C59.2487 60 10 82.3858 10 110C10 137.614 59.2487 160 120 160Z" fill="white" fill-opacity="0.95"/>
<path d="M260 160C331.797 160 390 133.137 390 100C390 66.8629 331.797 40 260 40C188.203 40 130 66.8629 130 100C130 133.137 188.203 160 260 160Z" fill="white" fill-opacity="0.95"/>
<path d="M170 130C219.706 130 260 103.137 260 70C260 36.8629 219.706 10 170 10C120.294 10 80 36.8629 80 70C80 103.137 120.294 130 170 130Z" fill="white" fill-opacity="0.95"/>
<path d="M270 120C308.66 120 340 100.301 340 76C340 51.6995 308.66 32 270 32C231.34 32 200 51.6995 200 76C200 100.301 231.34 120 270 120Z" fill="white" fill-opacity="0.95"/>
<path d="M110 124C143.137 124 170 106.091 170 84C170 61.9086 143.137 44 110 44C76.8629 44 50 61.9086 50 84C50 106.091 76.8629 124 110 124Z" fill="white" fill-opacity="0.95"/>
</g>
</svg>
