<svg width="107" height="33" viewBox="0 0 107 33" fill="none" xmlns="http://www.w3.org/2000/svg">
<path d="M106.312 19.3707C106.206 17.0618 105.861 14.7791 105.114 12.8536C103.002 7.40623 102.367 2.39831 95.9434 0.336473C87.5925 -2.34398 85.0687 11.9226 76.3519 10.2281C72.8284 9.54321 71.7429 7.60393 68.1399 7.88281C59.3404 8.56392 62.1108 14.27 55.8449 15.0978C51.979 15.6086 49.4106 13.9914 45.7294 15.0978C38.3649 17.3113 40.5143 19.1748 36.2534 21.9459C24.5863 29.5337 0 31.2289 0 31.2289L92.2552 32.0302C99.7653 32.0955 106.657 26.8732 106.312 19.3707Z" fill="#F7F7F7"/>
</svg>
