<svg width="118" height="36" viewBox="0 0 118 36" fill="none" xmlns="http://www.w3.org/2000/svg">
<path d="M0.00138225 22.639C0.0387637 19.6624 0.396047 16.6402 1.35884 14.1571C3.68516 8.15734 4.38453 2.64153 11.4596 0.370596C20.6574 -2.5817 23.4372 13.1317 33.038 11.2654C36.9188 10.511 38.1144 8.37508 42.0827 8.68225C51.7747 9.43243 48.7233 15.7172 55.6247 16.629C59.8827 17.1915 62.7116 15.4103 66.7661 16.629C74.8774 19.067 72.5101 21.1195 77.203 24.1716C90.0534 32.5289 117.133 34.3959 117.133 34.3959L14.2177 35.2899C6.70762 35.3551 -0.0929275 30.1488 0.00138225 22.639Z" fill="#F7F7F7"/>
</svg>
