<svg width="340" height="136" viewBox="0 0 340 136" fill="none" xmlns="http://www.w3.org/2000/svg">
<g opacity="0.9">
<path d="M102 136C153.639 136 195.5 116.972 195.5 93.5C195.5 70.0279 153.639 51 102 51C50.3614 51 8.5 70.0279 8.5 93.5C8.5 116.972 50.3614 136 102 136Z" fill="white" fill-opacity="0.95"/>
<path d="M221 136C282.027 136 331.5 113.167 331.5 85C331.5 56.8335 282.027 34 221 34C159.973 34 110.5 56.8335 110.5 85C110.5 113.167 159.973 136 221 136Z" fill="white" fill-opacity="0.95"/>
<path d="M144.5 110.5C186.75 110.5 221 87.6665 221 59.5C221 31.3335 186.75 8.5 144.5 8.5C102.25 8.5 68 31.3335 68 59.5C68 87.6665 102.25 110.5 144.5 110.5Z" fill="white" fill-opacity="0.95"/>
<path d="M229.5 102C262.361 102 289 85.2554 289 64.6C289 43.9445 262.361 27.2 229.5 27.2C196.639 27.2 170 43.9445 170 64.6C170 85.2554 196.639 102 229.5 102Z" fill="white" fill-opacity="0.95"/>
<path d="M93.5 105.4C121.667 105.4 144.5 90.1777 144.5 71.4C144.5 52.6223 121.667 37.4 93.5 37.4C65.3335 37.4 42.5 52.6223 42.5 71.4C42.5 90.1777 65.3335 105.4 93.5 105.4Z" fill="white" fill-opacity="0.95"/>
</g>
</svg>
