<svg width="478" height="170" viewBox="0 0 478 170" fill="none" xmlns="http://www.w3.org/2000/svg">
<path d="M136 42.5C161.757 42.5 184.54 50.9862 198.403 63.9932C205.371 62.1938 213.001 61.2002 221 61.2002C239.244 61.2002 255.568 66.364 266.482 74.4902C300.209 83.2221 323 99.8823 323 119C323 147.167 273.527 170 212.5 170C189.498 170 168.139 166.755 150.45 161.205C134.68 166.718 114.933 170 93.5 170C41.8614 170 0 150.972 0 127.5C0 113.643 14.5906 101.337 37.1689 93.5781C42.075 84.7597 52.3101 77.6669 65.2676 74.0391C76.7402 55.527 104.088 42.5 136 42.5Z" fill="#C97CF5" fill-opacity="0.12"/>
<g opacity="0.9">
<path d="M237.281 0C267.584 0 294.389 9.98413 310.698 25.2871C318.895 23.1704 327.871 22 337.281 22C358.749 22 377.959 28.0743 390.8 37.6377C430.472 47.9112 457.281 67.5105 457.281 90C457.281 123.137 399.078 150 327.281 150C300.223 150 275.096 146.184 254.287 139.655C235.733 146.142 212.498 150 187.281 150C126.53 150 77.2812 127.614 77.2812 100C77.2812 83.6976 94.4462 69.2184 121.009 60.0908C126.781 49.7165 138.823 41.3724 154.066 37.1045C167.564 15.3256 199.738 0 237.281 0Z" fill="#C97CF5" fill-opacity="0.12"/>
</g>
</svg>
