<svg width="107" height="33" viewBox="0 0 107 33" fill="none" xmlns="http://www.w3.org/2000/svg">
<path d="M0.0128179 19.3707C0.118901 17.0618 0.464465 14.7791 1.21108 12.8536C3.3232 7.40623 3.95817 2.39831 10.3818 0.336473C18.7327 -2.34398 21.2565 11.9226 29.9733 10.2281C33.4968 9.54321 34.5823 7.60393 38.1852 7.88281C46.9848 8.56392 44.2144 14.27 50.4803 15.0978C54.3462 15.6086 56.9146 13.9914 60.5958 15.0978C67.9603 17.3113 65.8109 19.1748 70.0718 21.9459C81.7389 29.5337 106.325 31.2289 106.325 31.2289L14.07 32.0302C6.55986 32.0955 -0.331879 26.8732 0.0128179 19.3707Z" fill="#4E375F"/>
</svg>
