<svg width="21" height="21" viewBox="0 0 21 21" fill="none" xmlns="http://www.w3.org/2000/svg">
<path d="M14.218 10.0348C14.218 12.344 12.346 14.2161 10.0367 14.2161C7.72749 14.2161 5.85547 12.344 5.85547 10.0348C5.85547 7.72553 7.72749 5.85352 10.0367 5.85352C12.346 5.85352 14.218 7.72553 14.218 10.0348Z" stroke="#E5E5E5" stroke-width="1.50526"/>
<path d="M10.0364 1.67236C9.72084 1.95111 9.2791 2.67587 10.0364 3.34487M10.0364 16.7249C10.3519 17.0037 10.7936 17.7284 10.0364 18.3974M16.3083 3.76527C15.8638 3.73776 14.9914 3.94942 15.0574 5.0161M4.59717 14.6343C4.62468 15.0788 4.41302 15.9512 3.34634 15.8851M4.18486 3.763C4.15733 4.2079 4.3692 5.08119 5.43697 5.01511M15.0539 14.6364C15.4983 14.6104 16.3707 14.8106 16.3047 15.8191M18.3989 10.0349C18.1202 9.71938 17.3954 9.27764 16.7264 10.0349M3.34634 9.61678C3.06759 9.93231 2.34283 10.374 1.67383 9.61678" stroke="#E5E5E5" stroke-width="1.50526" stroke-linecap="round"/>
</svg>
