<svg width="266" height="105" viewBox="0 0 266 105" fill="none" xmlns="http://www.w3.org/2000/svg">
<path d="M112 0C133.212 0 151.975 6.9884 163.392 17.7002C169.129 16.2185 175.413 15.4004 182 15.4004C197.027 15.4004 210.473 19.6544 219.461 26.3486C247.232 33.54 266 47.2571 266 63C266 86.196 225.258 105 175 105C156.058 105 138.468 102.327 123.901 97.7568C110.914 102.297 94.6511 105 77 105C34.4741 105 0 89.33 0 70C0 58.5881 12.016 48.4528 30.6104 42.0635C34.6509 34.8016 43.0794 28.9601 53.75 25.9727C63.1983 10.7277 85.7198 0 112 0Z" fill="#C97CF5" fill-opacity="0.08"/>
</svg>
